<svg width="172" height="53" viewBox="0 0 172 53" fill="none" xmlns="http://www.w3.org/2000/svg">
<path d="M46.3209 15.9492C48.1683 15.3499 49.9238 14.69 51.7076 14.1202C52.9908 13.7103 53.9504 14.1641 54.4307 15.265C54.9332 16.4168 54.5827 17.5297 53.423 18.0146C51.2604 18.9188 49.0716 19.763 46.8724 20.5734C46.0766 20.8666 45.2755 20.778 44.5447 20.2133C43.3398 19.2824 42.0961 18.4025 40.7802 17.436C39.1415 19.0813 37.7345 20.8427 36.2346 22.656C37.1557 23.7216 38.2571 24.4705 39.2642 25.3201C41.3321 27.0647 41.4574 28.3106 39.6968 30.3911C37.6952 32.7565 35.6752 35.1063 33.6466 37.4482C32.547 38.7177 31.1937 38.8873 30.0241 37.948C28.8287 36.9879 28.6715 35.5293 29.7457 34.1952C31.0983 32.5154 32.4984 30.8698 33.958 29.2841C34.6807 28.499 34.5958 28.0199 33.7995 27.3905C32.3246 26.2247 30.9048 24.9875 29.4743 23.7655C28.074 22.5693 27.9783 21.3527 29.2045 19.904C30.776 18.0473 32.3808 16.2191 33.9712 14.3785C34.3011 13.9967 34.692 13.6557 34.8088 13.1368C33.2451 11.1955 32.4967 10.9813 30.3245 11.8273C29.2681 12.2387 28.2237 12.6934 27.1429 13.0265C25.7537 13.4546 24.6768 12.9387 24.2581 11.7591C23.8233 10.5346 24.3682 9.43605 25.7557 8.87862C27.6063 8.13515 29.491 7.47639 31.3301 6.70639C32.5505 6.19543 33.5348 6.3904 34.5857 7.19359C38.443 10.1418 42.3518 13.0216 46.3209 15.9492Z" fill="white"/>
<path d="M137.927 25.3235C136.896 30.9273 135.86 36.4296 134.883 41.9434C134.703 42.9587 134.352 43.4401 133.317 43.3538C132.263 43.266 131.196 43.3112 130.136 43.3405C129.424 43.3602 129.064 43.1068 129.027 42.2897C128.919 39.8934 128.761 37.4995 128.617 35.105C128.553 34.0386 128.477 32.9729 128.243 31.89C127.69 34.8391 127.138 37.7881 126.586 40.7373C126.098 43.3453 126.098 43.3454 123.579 43.3361C122.025 43.3303 122.024 43.2921 122.322 41.7007C123.414 35.8553 124.511 30.0103 125.534 24.1511C125.744 22.9464 126.132 22.3649 127.366 22.5055C128.342 22.6167 129.34 22.5612 130.326 22.5172C131.052 22.4848 131.412 22.7611 131.45 23.5537C131.551 25.6796 131.708 27.8029 131.787 29.9295C131.839 31.3229 131.873 32.7151 132.113 34.3887C132.659 31.4813 133.156 28.8368 133.652 26.192C133.702 25.9263 133.735 25.657 133.791 25.3929C134.491 22.0774 133.727 22.5734 137.284 22.5176C138.061 22.5054 138.368 22.7974 138.198 23.6235C138.089 24.1523 138.026 24.6915 137.927 25.3235Z" fill="white"/>
<path d="M82.2496 22.4949C83.4524 22.4957 84.5362 22.4665 85.6175 22.5041C87.6757 22.5755 88.6951 23.795 88.3425 25.7336C88.1062 27.0326 87.8592 28.3299 87.5959 29.6239C87.2671 31.2405 86.8992 32.8444 85.2293 33.8887C86.5486 35.5235 86.1243 37.2342 85.7181 38.958C85.4417 40.1308 85.2131 41.3156 85.0088 42.5024C84.9019 43.1231 84.5646 43.3605 83.9476 43.3561C79.856 43.3273 80.3436 43.8202 81.0433 40.0917C81.2081 39.2135 81.3709 38.3343 81.5047 37.4512C81.6446 36.5275 81.2264 36.0895 80.2446 36.0414C78.141 35.9382 78.0686 35.9928 77.709 37.9938C77.4408 39.4856 77.0872 40.9628 76.8066 42.4527C76.6825 43.1116 76.3179 43.3783 75.6493 43.3611C74.8479 43.3404 74.0454 43.3413 73.2437 43.3528C72.4942 43.3637 72.2325 43.015 72.3726 42.3254C73.6487 36.0422 74.9267 29.7594 76.1935 23.4744C76.3324 22.7852 76.7168 22.4896 77.4381 22.4977C79.0017 22.5153 80.5657 22.498 82.2496 22.4949ZM79.8654 32.0017C82.4569 32.0093 82.7353 31.8191 83.21 29.1297C83.7088 26.3043 84.4116 26.5896 80.8792 26.5699C80.3209 26.5668 79.9851 26.7478 79.8809 27.3273C79.6548 28.5847 79.3807 29.8339 79.1366 31.0884C79.0506 31.5304 79.0012 31.9744 79.8654 32.0017Z" fill="white"/>
<path d="M96.1852 36.1273C95.2342 37.0558 95.4264 38.2612 95.1281 39.3204C94.834 40.3647 94.6838 41.4469 94.467 42.5117C94.3864 42.9078 94.2631 43.3049 93.7555 43.316C92.7146 43.3389 91.6699 43.3731 90.6325 43.3117C89.8353 43.2644 90.0063 42.6802 90.1086 42.1693C90.9541 37.9463 91.7935 33.7221 92.6377 29.4988C93.0254 27.5589 93.4437 25.6243 93.7995 23.6789C93.9473 22.8708 94.2728 22.4684 95.2036 22.4854C97.8481 22.5335 100.495 22.4726 103.139 22.5125C105.427 22.547 106.422 23.7639 105.999 25.9103C105.669 27.5855 105.333 29.2597 104.991 30.9327C104.746 32.1262 103.548 32.8957 103.267 33.9023C102.995 34.8746 104.007 36.0274 103.736 37.241C103.356 38.9456 103.02 40.6602 102.701 42.3768C102.574 43.0607 102.259 43.3997 101.504 43.3606C100.705 43.3191 99.9014 43.3411 99.0999 43.3499C98.3627 43.3579 98.0993 43.0649 98.2554 42.3356C98.5722 40.856 98.8269 39.364 99.1167 37.8789C99.4125 36.3638 99.173 36.0641 97.6012 36.051C97.1613 36.0473 96.7212 36.0816 96.1852 36.1273ZM98.8276 31.9889C100.569 31.7587 100.614 30.4132 100.895 29.1512C101.545 26.2363 101.574 26.5654 98.3862 26.5785C97.9157 26.5805 97.6323 26.7986 97.5428 27.2387C97.2883 28.4898 97.0354 29.7412 96.7948 30.9949C96.6675 31.6586 96.8994 32.0499 97.6694 32.0059C97.9879 31.9877 98.3083 32.0013 98.8276 31.9889Z" fill="white"/>
<path d="M147.692 22.491C149.57 22.4922 151.33 22.4713 153.088 22.5004C155.175 22.5349 156.235 23.8224 155.845 25.799C155.063 29.7602 154.274 33.7202 153.496 37.6821C152.841 41.0228 150.064 43.2326 146.29 43.3412C144.493 43.3929 142.693 43.3359 140.895 43.3592C140.085 43.3697 139.714 43.1535 139.895 42.2661C141.112 36.2932 142.286 30.3121 143.497 24.3381C143.871 22.4927 143.904 22.4987 145.774 22.493C146.373 22.4912 146.973 22.4916 147.692 22.491ZM146.454 31.916C146.037 33.9717 145.612 36.0259 145.211 38.0844C145.134 38.4785 144.929 38.9459 145.493 39.2021C146.86 39.824 148.708 38.9749 149.004 37.564C149.514 35.1313 150.033 32.6995 150.478 30.2551C150.689 29.0893 151.103 27.9383 150.999 26.7089C150.202 26.4502 149.436 26.6438 148.693 26.5626C147.857 26.4715 147.442 26.7929 147.307 27.6087C147.079 28.987 146.78 30.3541 146.454 31.916Z" fill="white"/>
<path d="M56.6294 30.4408C55.8435 34.371 55.0478 38.1994 54.3426 42.0439C54.1691 42.9897 53.8207 43.4319 52.8228 43.3454C52.1979 43.2913 51.5625 43.3019 50.9353 43.3399C49.9724 43.3982 49.6794 43.0404 49.8922 42.0923C50.3412 40.091 50.7148 38.073 51.1006 36.0584C51.1567 35.7656 51.3005 35.4605 51.1122 35.0833C50.1928 34.837 49.2126 34.9644 48.2475 34.9993C47.5481 35.0246 47.5788 35.6731 47.4804 36.1385C47.0641 38.1084 46.642 40.0784 46.2918 42.0603C46.1305 42.9735 45.7651 43.468 44.7521 43.3451C44.2869 43.2887 43.8089 43.3357 43.3367 43.335C41.6628 43.3323 41.6384 43.291 41.9479 41.724C43.1328 35.7254 44.3211 29.7275 45.4736 23.7228C45.6423 22.8437 46.0059 22.4981 46.9531 22.5015C50.1548 22.5132 50.1598 22.4797 49.5525 25.5486C49.2745 26.9532 48.9756 28.3537 48.6816 29.7551C48.5193 30.5287 48.7556 30.8826 49.6336 30.9073C52.1081 30.9772 52.0989 31.0069 52.5547 28.6684C52.888 26.9585 53.2671 25.2572 53.5847 23.5447C53.7215 22.8068 54.0759 22.5314 54.8547 22.5101C58.1403 22.4203 58.1528 22.3992 57.5928 25.5579C57.309 27.1586 56.968 28.7495 56.6294 30.4408Z" fill="white"/>
<path d="M165.005 37.017C165.358 35.363 165.108 35.0308 163.44 34.9765C162.605 34.9493 161.808 34.8065 161.026 34.5539C159.003 33.9001 157.779 32.2579 158.045 30.2551C158.28 28.4911 158.67 26.7388 159.11 25.0081C159.447 23.683 161.032 22.5871 162.665 22.5372C164.884 22.4695 167.109 22.4656 169.328 22.5365C171.231 22.5972 172.289 23.9611 171.932 25.7246C171.731 26.7144 171.475 27.6957 171.316 28.691C171.201 29.4096 170.8 29.6904 170.074 29.6849C168.974 29.6766 167.874 29.6827 166.776 29.6827C166.459 28.5803 167.175 27.7118 166.94 26.7211C165.967 26.4314 164.943 26.6241 163.936 26.6009C163.612 26.5934 163.362 26.7573 163.294 27.0492C163.073 27.9932 162.815 28.9366 162.706 29.8939C162.633 30.5249 163.245 30.7087 163.79 30.794C164.518 30.9079 165.266 30.9224 165.984 31.0729C168.72 31.6468 170.041 33.2208 169.755 35.8148C169.569 37.5031 169.178 39.1839 168.722 40.8294C168.303 42.341 166.665 43.2947 164.67 43.3333C162.779 43.37 160.885 43.3764 158.994 43.3361C156.571 43.2845 155.591 42.1126 156.026 39.8613C156.218 38.8694 156.432 37.8814 156.632 36.8911C156.751 36.3064 157.11 36.0189 157.751 36.0473C158.038 36.0601 158.327 36.0408 158.615 36.0389C161.104 36.0225 161.121 36.0241 160.911 38.283C160.844 38.9987 161.115 39.3081 161.868 39.2524C161.99 39.2433 162.115 39.2516 162.238 39.2527C164.547 39.2736 164.547 39.2736 165.005 37.017Z" fill="white"/>
<path d="M117.072 43.3473C113.855 43.3228 114.288 43.6001 114.219 40.8765C114.204 40.2736 114.679 39.3902 113.504 39.1714C111.594 38.8159 110.637 39.1398 110.169 40.2896C110.095 40.471 110.033 40.6568 109.952 40.8352C108.775 43.422 108.775 43.4218 105.73 43.3413C104.393 43.3059 104.254 43.1299 104.748 41.9451C106.392 37.9981 108.051 34.0567 109.705 30.1134C110.631 27.9067 111.586 25.71 112.469 23.489C112.765 22.7452 113.226 22.4647 114.062 22.4969C115.234 22.542 116.413 22.5516 117.584 22.49C118.639 22.4344 118.96 22.8307 118.953 23.7776C118.916 28.6313 118.934 33.4853 118.933 38.3393C118.933 39.4654 118.937 40.5915 118.932 41.7176C118.923 43.3195 118.92 43.3195 117.072 43.3473ZM112.89 35.0533C113.423 35.0651 114.119 35.2179 114.2 34.514C114.409 32.6792 114.522 30.8351 114.674 28.9947C113.808 30.771 113.198 32.5783 112.59 34.3863C112.514 34.6129 112.457 34.8418 112.89 35.0533Z" fill="white"/>
<path d="M64.0745 22.4903C67.0482 22.487 69.9179 22.4796 72.7874 22.491C74.0024 22.4958 74.0923 22.6353 73.8115 23.873C73.2016 26.5612 73.2016 26.5611 70.5188 26.5613C69.6881 26.5614 68.8528 26.6191 68.0279 26.5477C67.0663 26.4645 66.5959 26.784 66.4327 27.825C65.8922 31.272 65.5127 30.8711 68.7554 30.8783C71.3343 30.8841 71.2688 30.869 70.9092 33.4566C70.7467 34.6259 70.3299 35.0836 69.176 34.9817C68.1266 34.8891 67.0627 34.9843 66.0062 34.9564C65.4112 34.9407 65.0878 35.1889 64.98 35.7846C64.8284 36.6226 64.6479 37.4553 64.5035 38.2946C64.3823 38.9988 64.6967 39.2792 65.3847 39.2663C66.819 39.2393 68.2548 39.2842 69.6888 39.2476C70.5786 39.2249 70.9572 39.505 70.709 40.483C69.8788 43.7546 70.7855 43.3264 67.3109 43.3518C65.0456 43.3684 62.7798 43.3364 60.5146 43.3634C59.5991 43.3743 59.346 43.067 59.5353 42.0972C60.7305 35.9744 61.8683 29.8398 63.0288 23.7098C63.1362 23.1428 63.1734 22.5022 64.0745 22.4903Z" fill="white"/>
<path d="M23.0878 30.2916C24.6767 28.3907 26.228 26.5699 27.735 24.7105C28.3418 23.9619 28.8677 23.8633 29.5724 24.5708C30.2157 25.2168 30.9294 25.79 31.6327 26.3684C32.2322 26.8613 32.3491 27.282 31.7784 27.9584C29.08 31.1567 26.4438 34.4115 23.755 37.6186C22.8073 38.749 21.3696 38.8361 20.282 37.9312C19.1304 36.9729 18.9442 35.4238 19.92 34.1482C20.9143 32.8486 21.9915 31.6174 23.0878 30.2916Z" fill="white"/>
<path d="M51.4396 4.30127C51.4644 7.55483 49.4813 9.67643 46.5549 9.63579C43.6311 9.59517 41.6126 7.31991 41.808 4.28509C41.9512 2.06042 43.972 0.175526 46.3904 0.0107365C48.7971 -0.153248 50.8783 1.57424 51.4396 4.30127Z" fill="white"/>
<path d="M13.2042 9.63575C9.73083 9.63573 6.37072 9.63468 3.01061 9.63633C2.33849 9.63666 1.62856 9.62039 1.60787 8.85408C1.58672 8.07089 2.3251 8.04121 2.9798 8.03987C7.96327 8.02967 12.9468 8.02833 17.9302 8.03246C18.6011 8.03301 19.3297 8.10975 19.288 8.86836C19.2472 9.60899 18.5161 9.63416 17.848 9.63449C16.3378 9.63524 14.8277 9.63532 13.2042 9.63575Z" fill="white"/>
<path d="M29.865 0.00892079C30.8497 0.0137341 31.7216 0.00416012 32.5922 0.0282204C33.197 0.0449207 33.7902 0.175497 33.7555 0.815586C33.7226 1.42132 33.1548 1.58189 32.5404 1.58434C29.9263 1.59478 27.3121 1.59251 24.6979 1.59354C22.4626 1.59441 20.227 1.61109 17.9921 1.58362C17.2185 1.57412 16.0676 1.8377 16.0747 0.777098C16.0815 -0.218498 17.1963 0.0284891 17.9311 0.0240848C21.8711 0.000485971 25.8115 0.0104922 29.865 0.00892079Z" fill="white"/>
<path d="M15.3834 30.3737C10.6065 30.4577 5.9269 30.506 1.24731 30.5152C0.612424 30.5164 -0.0387771 30.208 0.00180367 28.7945C0.0382416 27.5253 0.642548 27.3031 1.24894 27.3031C5.74082 27.3032 10.2327 27.2995 14.7245 27.331C15.2355 27.3346 15.847 27.283 16.0285 28.4473C16.1599 29.2902 16.0316 30.0282 15.3834 30.3737Z" fill="white"/>
<path d="M18.1954 19.2716C14.9466 19.2719 11.8113 19.2723 8.67598 19.2724C8.37379 19.2724 8.07149 19.2743 7.76941 19.2682C7.13269 19.2554 6.45004 19.1729 6.43063 18.4425C6.40941 17.6441 7.1423 17.6691 7.75507 17.6687C12.3636 17.6654 16.9722 17.6669 21.5807 17.6675C22.0718 17.6675 22.5629 17.6729 23.0539 17.6728C23.5914 17.6728 24.0758 17.79 24.1105 18.3798C24.1483 19.0229 23.6289 19.2342 23.0677 19.2463C21.482 19.2806 19.8952 19.2665 18.1954 19.2716Z" fill="white"/>
<path d="M109.338 52.6292C109.421 51.6786 109.53 50.8258 109.676 49.6804C109.126 50.5752 109.048 51.459 108.796 52.2203C108.624 52.7396 108.413 53.1685 107.978 52.9343C107.519 52.6876 107.826 52.1611 107.837 51.7333C107.857 50.9342 108.698 50.0615 107.701 49.4111C108.391 48.2046 110.071 47.9412 110.956 48.8435C111.384 48.6183 111.758 47.7708 112.282 48.4251C112.748 49.0067 112.42 49.7201 112.282 50.3694C112.183 50.8414 112.016 51.2354 112.187 51.813C112.381 52.4675 111.958 52.8376 111.543 52.9224C111.044 53.0243 110.94 52.4862 110.921 51.9372C110.891 51.1195 111.315 50.485 111.453 49.4796C110.857 50.3286 110.669 51.235 110.39 52.072C110.19 52.6734 109.985 53.3491 109.338 52.6292Z" fill="white"/>
<path d="M145.446 48.5816C145.947 48.517 146.171 48.8571 146.233 49.3644C146.384 50.6065 146.187 51.7259 145.454 52.5978C145.151 52.9568 144.809 53.1702 144.413 52.811C144.264 52.6764 144.172 52.4784 143.926 52.6919C143.093 53.4154 142.981 52.7539 143.111 51.8529C143.236 50.9824 143.44 50.1324 143.59 49.2674C143.717 48.5362 143.963 47.81 143.654 47.0464C144.056 46.5892 144.461 46.4943 144.925 46.6372C145.139 47.4321 144.777 48.1511 144.814 48.984C145.052 48.8259 145.218 48.7156 145.446 48.5816ZM144.815 51.7452C145.136 51.2208 145.3 50.6595 145.116 49.9075C144.288 51.0782 144.258 51.2283 144.815 51.7452Z" fill="white"/>
<path d="M97.3356 51.806C96.6694 53.2123 96.2647 53.278 95.6079 52.1555C95.5344 52.1796 95.4431 52.1825 95.3884 52.2318C94.8988 52.6725 94.396 53.3107 93.7141 52.827C93.0323 52.3434 93.2203 51.5097 93.4076 50.8132C93.6913 49.7579 94.3555 48.8676 95.3424 48.7055C96.5193 48.5122 96.7291 47.9226 96.4331 46.8953C96.9769 46.5574 97.4636 46.4721 98.0555 46.7139C98.0712 48.0228 97.4439 49.1719 97.2336 50.4172C97.1575 50.8683 96.8866 51.3208 97.3356 51.806ZM95.0361 50.3222C94.9429 50.6461 94.6418 50.9467 94.9271 51.3866C95.6272 50.9132 95.9775 50.2912 96.1083 49.4374C95.5346 49.4558 95.3371 49.8329 95.0361 50.3222Z" fill="white"/>
<path d="M131.103 48.406C132.327 48.0783 132.54 48.709 132.43 49.489C132.343 50.0987 132.078 50.6873 131.979 51.3178C132.557 50.7506 132.882 50.0705 133.149 49.3563C133.35 48.8191 133.414 48.0014 134.303 48.2172C135.316 48.4631 134.78 49.2451 134.677 49.8208C134.558 50.4844 134.379 51.1391 134.399 51.8535C135.345 51.3107 135.663 50.5152 135.448 49.535C135.356 49.1204 135.206 48.7166 135.633 48.4116C135.752 48.3266 136.038 48.3238 136.179 48.3953C136.717 48.6693 136.667 49.1695 136.584 49.6096C136.377 50.7138 135.831 51.687 134.939 52.4563C133.986 53.2775 133.327 53.1546 132.643 52.1275C132.25 52.3841 131.885 52.6976 131.454 52.8858C130.841 53.1535 130.295 52.9436 130.22 52.3273C130.087 51.2275 130.919 50.1605 130.416 49.0107C130.372 48.9112 130.801 48.6396 131.103 48.406Z" fill="white"/>
<path d="M124.201 48.9752C124.332 48.7451 124.43 48.5454 124.539 48.428C124.783 48.1663 125.034 47.9759 125.248 48.6C125.373 48.9631 125.433 49.4028 125.334 49.8674C125.19 50.5513 124.978 50.9258 124.688 50.8413C124.542 50.1419 124.913 49.8789 124.795 49.1719C124.507 49.8516 124.435 50.7319 124.357 51.5681C124.605 52.291 124.777 51.3506 125.076 51.5496C124.955 52.5871 124.669 52.9822 124.337 52.9996C123.966 53.019 123.802 52.2676 123.778 51.3511C123.754 50.4115 123.924 49.6669 124.201 48.9752Z" fill="white"/>
<path d="M99.8504 49.6923C100.351 48.5149 101.025 47.9494 101.942 48.2709C102.635 48.5137 102.899 49.3066 102.877 50.212C102.847 51.5029 102.342 52.383 101.455 52.8481C100.968 53.1032 100.508 53.0632 100.128 52.5255C99.5586 51.7189 99.5723 50.7791 99.8504 49.6923ZM101.302 51.8592C101.743 51.0095 102.017 50.1359 101.553 49.0451C100.856 49.6002 100.73 50.4574 100.655 51.3168C100.614 51.7777 100.736 52.1642 101.302 51.8592Z" fill="white"/>
<path d="M114.996 52.9951C114.101 52.4373 114.071 51.4623 114.17 50.4171C114.269 49.3637 114.725 48.6849 115.409 48.3236C116.489 47.7537 117.511 48.9806 117.324 50.5869C117.144 52.1308 116.272 53.0763 114.996 52.9951ZM116.007 51.3874C116.277 50.6061 116.457 49.8307 115.907 48.9469C115.33 49.6317 115.145 50.4461 115.124 51.3672C115.118 51.6607 115.149 51.9828 115.383 52.074C115.679 52.1896 115.797 51.8408 116.007 51.3874Z" fill="white"/>
<path d="M156.165 51.4052C156.895 52.335 155.827 52.4811 155.332 52.7393C154.489 53.1792 153.576 53.0915 153.05 52.2516C152.343 51.1201 152.835 50.0821 153.645 49.1807C154.419 48.3179 155.506 48.0029 156.711 48.2791C157.428 48.4439 157.659 49.0196 157.468 49.6068C157.172 50.5153 156.45 50.908 155.399 50.7703C155.173 50.1555 156.07 49.8611 155.618 49.0564C154.901 49.8306 154.336 50.6802 154.543 51.468C154.736 52.2005 155.547 51.7189 156.165 51.4052Z" fill="white"/>
<path d="M159.458 49.5965C159.757 50.1018 160.094 50.5092 160.258 50.998C160.505 51.7348 160.204 52.3375 159.655 52.7133C159.03 53.1418 158.367 53.1072 157.862 52.492C157.511 52.0645 157.338 51.4752 157.876 51.0054C158.43 50.9546 158.502 51.7791 159.067 51.8599C158.987 51.0944 158.451 50.7641 158.234 50.2169C157.949 49.4995 158.019 48.8123 158.633 48.4706C159.303 48.098 160.064 47.9813 160.623 48.7667C160.87 49.1143 160.715 49.5257 160.463 49.778C159.94 49.8858 159.803 49.256 159.418 49.1944C159.397 49.1909 159.344 49.2572 159.348 49.2818C159.361 49.3684 159.393 49.4509 159.458 49.5965Z" fill="white"/>
<path d="M163.595 48.3612C164.211 48.1747 164.764 48.0435 165.233 48.4414C165.698 48.8371 165.624 49.3403 165.358 49.751C164.801 49.9546 164.715 49.2038 164.295 49.2406C164.342 49.7604 164.671 50.0388 164.892 50.3936C165.346 51.1215 165.385 51.8496 164.807 52.4739C164.197 53.1338 163.484 53.1652 162.809 52.6111C162.393 52.269 162.176 51.7056 162.541 51.1987C162.943 50.6395 163.178 51.2812 163.447 51.5422C163.583 51.6738 163.656 51.9353 163.964 51.8344C163.813 50.6981 161.966 49.8287 163.595 48.3612Z" fill="white"/>
<path d="M152.239 50.0015C152.133 50.7372 151.918 51.3067 152.111 52.0553C152.245 52.5704 151.911 52.886 151.629 52.9786C151.276 53.0949 151.109 52.7249 151.103 52.1714C151.093 51.1717 151.325 50.2525 151.482 49.3125C151.612 48.5351 151.763 47.7736 151.62 46.9654C151.96 46.5692 152.283 46.4568 152.71 46.7137C152.668 47.8238 152.394 48.8416 152.239 50.0015Z" fill="white"/>
<path d="M139.898 51.478C139.981 50.8231 140.096 50.3073 140.027 49.6536C139.981 49.2197 140.358 48.4745 140.793 48.2255C140.999 48.1075 141.223 48.2254 141.235 48.6115C141.246 48.9715 141.339 49.2581 141.458 49.5774C140.955 50.2905 140.624 51.0885 140.836 52.2069C140.928 52.6924 140.651 52.853 140.409 52.9584C140.122 53.0834 139.903 52.9288 139.859 52.4595C139.832 52.1679 139.874 51.8612 139.898 51.478Z" fill="white"/>
<path d="M137.741 50.6343C137.564 51.3823 138.136 52.3246 137.466 52.7935C137.243 52.9499 137.031 53.14 136.814 52.8467C136.627 52.5946 136.606 52.2268 136.664 51.8376C136.751 51.2549 136.782 50.6177 136.937 50.1028C137.131 49.4593 136.762 49.4883 136.656 49.14C136.969 48.3696 137.615 48.0441 137.623 46.8319C137.625 46.5719 137.861 46.509 138.016 46.6472C138.243 46.8506 138.29 47.2955 138.201 47.6064C137.936 48.5374 137.964 49.5949 137.741 50.6343Z" fill="white"/>
<path d="M122.168 49.1144C120.935 49.9098 120.293 51.1269 120.01 52.7052C119.962 52.9725 119.652 53.046 119.412 52.9738C119.076 52.8726 119.064 52.531 119.067 52.1899C119.073 51.2841 119.694 50.3419 118.961 49.473C118.935 49.4421 118.979 49.2888 119.018 49.2141C119.268 48.7348 119.892 48.0217 119.984 48.2139C120.55 49.4038 121.917 46.9997 122.168 49.1144Z" fill="white"/>
<path d="M86.7999 52.0252C86.8339 52.635 86.6165 52.998 85.95 53C85.569 53.0011 85.2992 52.8123 85.2246 52.4822C85.1291 52.0597 85.2648 51.6861 85.7267 51.4846C86.2652 51.2497 86.5959 51.4855 86.7999 52.0252Z" fill="white"/>
</svg>
